<svg id="visual" viewBox="0 0 960 100" width="960" height="100" xmlns="http://www.w3.org/2000/svg" xmlns:xlink="http://www.w3.org/1999/xlink" version="1.1"><rect x="0" y="0" width="960" height="100" fill="#FFFFFF"></rect><path d="M0 72L22.8 71.7C45.7 71.3 91.3 70.7 137 68.2C182.7 65.7 228.3 61.3 274 59.2C319.7 57 365.3 57 411.2 59.3C457 61.7 503 66.3 548.8 67.8C594.7 69.3 640.3 67.7 686 66C731.7 64.3 777.3 62.7 823 62C868.7 61.3 914.3 61.7 937.2 61.8L960 62L960 0L937.2 0C914.3 0 868.7 0 823 0C777.3 0 731.7 0 686 0C640.3 0 594.7 0 548.8 0C503 0 457 0 411.2 0C365.3 0 319.7 0 274 0C228.3 0 182.7 0 137 0C91.3 0 45.7 0 22.8 0L0 0Z" fill="#b04907"></path><path d="M0 54L22.8 52.7C45.7 51.3 91.3 48.7 137 47.3C182.7 46 228.3 46 274 45.7C319.7 45.3 365.3 44.7 411.2 45C457 45.3 503 46.7 548.8 49.8C594.7 53 640.3 58 686 56.7C731.7 55.3 777.3 47.7 823 45.2C868.7 42.7 914.3 45.3 937.2 46.7L960 48L960 0L937.2 0C914.3 0 868.7 0 823 0C777.3 0 731.7 0 686 0C640.3 0 594.7 0 548.8 0C503 0 457 0 411.2 0C365.3 0 319.7 0 274 0C228.3 0 182.7 0 137 0C91.3 0 45.7 0 22.8 0L0 0Z" fill="#ca5405"></path><path d="M0 34L22.8 36.5C45.7 39 91.3 44 137 46.7C182.7 49.3 228.3 49.7 274 50C319.7 50.3 365.3 50.7 411.2 50.3C457 50 503 49 548.8 47.3C594.7 45.7 640.3 43.3 686 41.3C731.7 39.3 777.3 37.7 823 36.5C868.7 35.3 914.3 34.7 937.2 34.3L960 34L960 0L937.2 0C914.3 0 868.7 0 823 0C777.3 0 731.7 0 686 0C640.3 0 594.7 0 548.8 0C503 0 457 0 411.2 0C365.3 0 319.7 0 274 0C228.3 0 182.7 0 137 0C91.3 0 45.7 0 22.8 0L0 0Z" fill="#e45e02"></path><path d="M0 35L22.8 33.2C45.7 31.3 91.3 27.7 137 28.7C182.7 29.7 228.3 35.3 274 36.8C319.7 38.3 365.3 35.7 411.2 32.8C457 30 503 27 548.8 27.7C594.7 28.3 640.3 32.7 686 32.8C731.7 33 777.3 29 823 28.8C868.7 28.7 914.3 32.3 937.2 34.2L960 36L960 0L937.2 0C914.3 0 868.7 0 823 0C777.3 0 731.7 0 686 0C640.3 0 594.7 0 548.8 0C503 0 457 0 411.2 0C365.3 0 319.7 0 274 0C228.3 0 182.7 0 137 0C91.3 0 45.7 0 22.8 0L0 0Z" fill="#f36e18"></path><path d="M0 19L22.8 18.5C45.7 18 91.3 17 137 17.7C182.7 18.3 228.3 20.7 274 21.5C319.7 22.3 365.3 21.7 411.2 22.5C457 23.3 503 25.7 548.8 26C594.7 26.3 640.3 24.7 686 23C731.7 21.3 777.3 19.7 823 19.8C868.7 20 914.3 22 937.2 23L960 24L960 0L937.2 0C914.3 0 868.7 0 823 0C777.3 0 731.7 0 686 0C640.3 0 594.7 0 548.8 0C503 0 457 0 411.2 0C365.3 0 319.7 0 274 0C228.3 0 182.7 0 137 0C91.3 0 45.7 0 22.8 0L0 0Z" fill="#f78237"></path><path d="M0 8L22.8 8.8C45.7 9.7 91.3 11.3 137 12.8C182.7 14.3 228.3 15.7 274 14.7C319.7 13.7 365.3 10.3 411.2 10.3C457 10.3 503 13.7 548.8 13.7C594.7 13.7 640.3 10.3 686 9.7C731.7 9 777.3 11 823 11.8C868.7 12.7 914.3 12.3 937.2 12.2L960 12L960 0L937.2 0C914.3 0 868.7 0 823 0C777.3 0 731.7 0 686 0C640.3 0 594.7 0 548.8 0C503 0 457 0 411.2 0C365.3 0 319.7 0 274 0C228.3 0 182.7 0 137 0C91.3 0 45.7 0 22.8 0L0 0Z" fill="#fb9451"></path></svg>