<svg id="visual" viewBox="0 0 960 400" width="960" height="400" xmlns="http://www.w3.org/2000/svg" xmlns:xlink="http://www.w3.org/1999/xlink" version="1.1"><rect x="0" y="0" width="960" height="400" fill="#FFFFFF"></rect><path d="M0 133L22.8 124.8C45.7 116.7 91.3 100.3 137 94.7C182.7 89 228.3 94 274 102.2C319.7 110.3 365.3 121.7 411.2 123.8C457 126 503 119 548.8 112.3C594.7 105.7 640.3 99.3 686 100.7C731.7 102 777.3 111 823 113.3C868.7 115.7 914.3 111.3 937.2 109.2L960 107L960 0L937.2 0C914.3 0 868.7 0 823 0C777.3 0 731.7 0 686 0C640.3 0 594.7 0 548.8 0C503 0 457 0 411.2 0C365.3 0 319.7 0 274 0C228.3 0 182.7 0 137 0C91.3 0 45.7 0 22.8 0L0 0Z" fill="#b04907"></path><path d="M0 78L22.8 79.3C45.7 80.7 91.3 83.3 137 83.2C182.7 83 228.3 80 274 77C319.7 74 365.3 71 411.2 73.8C457 76.7 503 85.3 548.8 91.2C594.7 97 640.3 100 686 99.8C731.7 99.7 777.3 96.3 823 92.7C868.7 89 914.3 85 937.2 83L960 81L960 0L937.2 0C914.3 0 868.7 0 823 0C777.3 0 731.7 0 686 0C640.3 0 594.7 0 548.8 0C503 0 457 0 411.2 0C365.3 0 319.7 0 274 0C228.3 0 182.7 0 137 0C91.3 0 45.7 0 22.8 0L0 0Z" fill="#ca5405"></path><path d="M0 79L22.8 75.8C45.7 72.7 91.3 66.3 137 67.7C182.7 69 228.3 78 274 80.2C319.7 82.3 365.3 77.7 411.2 75.7C457 73.7 503 74.3 548.8 75.3C594.7 76.3 640.3 77.7 686 77.7C731.7 77.7 777.3 76.3 823 76.3C868.7 76.3 914.3 77.7 937.2 78.3L960 79L960 0L937.2 0C914.3 0 868.7 0 823 0C777.3 0 731.7 0 686 0C640.3 0 594.7 0 548.8 0C503 0 457 0 411.2 0C365.3 0 319.7 0 274 0C228.3 0 182.7 0 137 0C91.3 0 45.7 0 22.8 0L0 0Z" fill="#e45e02"></path><path d="M0 65L22.8 64.8C45.7 64.7 91.3 64.3 137 61C182.7 57.7 228.3 51.3 274 49.8C319.7 48.3 365.3 51.7 411.2 51.3C457 51 503 47 548.8 48.2C594.7 49.3 640.3 55.7 686 58.8C731.7 62 777.3 62 823 58.3C868.7 54.7 914.3 47.3 937.2 43.7L960 40L960 0L937.2 0C914.3 0 868.7 0 823 0C777.3 0 731.7 0 686 0C640.3 0 594.7 0 548.8 0C503 0 457 0 411.2 0C365.3 0 319.7 0 274 0C228.3 0 182.7 0 137 0C91.3 0 45.7 0 22.8 0L0 0Z" fill="#f36e18"></path><path d="M0 46L22.8 45.8C45.7 45.7 91.3 45.3 137 43.8C182.7 42.3 228.3 39.7 274 37.3C319.7 35 365.3 33 411.2 32.7C457 32.3 503 33.7 548.8 36.2C594.7 38.7 640.3 42.3 686 41.2C731.7 40 777.3 34 823 34.8C868.7 35.7 914.3 43.3 937.2 47.2L960 51L960 0L937.2 0C914.3 0 868.7 0 823 0C777.3 0 731.7 0 686 0C640.3 0 594.7 0 548.8 0C503 0 457 0 411.2 0C365.3 0 319.7 0 274 0C228.3 0 182.7 0 137 0C91.3 0 45.7 0 22.8 0L0 0Z" fill="#f78237"></path><path d="M0 33L22.8 32.3C45.7 31.7 91.3 30.3 137 29.8C182.7 29.3 228.3 29.7 274 28.7C319.7 27.7 365.3 25.3 411.2 22.3C457 19.3 503 15.7 548.8 17C594.7 18.3 640.3 24.7 686 24.5C731.7 24.3 777.3 17.7 823 17.7C868.7 17.7 914.3 24.3 937.2 27.7L960 31L960 0L937.2 0C914.3 0 868.7 0 823 0C777.3 0 731.7 0 686 0C640.3 0 594.7 0 548.8 0C503 0 457 0 411.2 0C365.3 0 319.7 0 274 0C228.3 0 182.7 0 137 0C91.3 0 45.7 0 22.8 0L0 0Z" fill="#fb9451"></path></svg>